<svg xmlns="http://www.w3.org/2000/svg" viewBox="0 0 640 480" role="img" aria-label="Americano">
  <defs>
    <linearGradient id="bg" x1="0" x2="1" y1="0" y2="1">
      <stop offset="0" stop-color="#eef5f2"/>
      <stop offset="1" stop-color="#dbe8e3"/>
    </linearGradient>
    <linearGradient id="glass" x1="0" x2="0" y1="0" y2="1">
      <stop offset="0" stop-color="#ffffff" stop-opacity=".82"/>
      <stop offset="1" stop-color="#bfd4cd" stop-opacity=".62"/>
    </linearGradient>
    <linearGradient id="drink" x1="0" x2="0" y1="0" y2="1">
      <stop offset="0" stop-color="#8c623d"/>
      <stop offset=".52" stop-color="#6b4127"/>
      <stop offset="1" stop-color="#3c2418"/>
    </linearGradient>
    <filter id="shadow" x="-20%" y="-20%" width="140%" height="150%">
      <feDropShadow dx="0" dy="18" stdDeviation="18" flood-color="#253630" flood-opacity=".18"/>
    </filter>
  </defs>
  <rect width="640" height="480" fill="url(#bg)"/>
  <circle cx="520" cy="92" r="112" fill="#729488" opacity=".15"/>
  <g filter="url(#shadow)">
    <ellipse cx="320" cy="350" rx="158" ry="26" fill="#b3c3be"/>
    <path d="M222 122h196l-24 238H246z" fill="url(#glass)" stroke="#ffffff" stroke-width="9"/>
    <path d="M238 188h164l-17 154H255z" fill="url(#drink)"/>
    <ellipse cx="320" cy="188" rx="82" ry="18" fill="#b47d4d"/>
    <ellipse cx="320" cy="342" rx="65" ry="12" fill="#4a2c1d" opacity=".5"/>
    <path d="M268 140h26M346 140h26" stroke="#ffffff" stroke-width="15" stroke-linecap="round" opacity=".84"/>
    <path d="M264 218c33 12 79 12 112 0" stroke="#d3aa7d" stroke-width="8" stroke-linecap="round" opacity=".52"/>
    <path d="M276 256c28 8 61 8 89 0" stroke="#2e1a12" stroke-width="7" stroke-linecap="round" opacity=".35"/>
  </g>
  <text x="320" y="428" text-anchor="middle" font-family="Segoe UI, Arial, sans-serif" font-size="32" font-weight="650" fill="#3c5f54">Americano</text>
</svg>
