<svg xmlns="http://www.w3.org/2000/svg" viewBox="0 0 640 480" role="img" aria-label="Brownies">
  <defs>
    <linearGradient id="bg" x1="0" x2="1" y1="0" y2="1">
      <stop offset="0" stop-color="#f4eeeb"/>
      <stop offset="1" stop-color="#e3d3ce"/>
    </linearGradient>
    <linearGradient id="cake" x1="0" x2="0" y1="0" y2="1">
      <stop offset="0" stop-color="#8a5a45"/>
      <stop offset="1" stop-color="#4f3026"/>
    </linearGradient>
    <filter id="shadow" x="-20%" y="-20%" width="140%" height="150%">
      <feDropShadow dx="0" dy="16" stdDeviation="16" flood-color="#2d1b17" flood-opacity=".18"/>
    </filter>
  </defs>
  <rect width="640" height="480" fill="url(#bg)"/>
  <circle cx="528" cy="92" r="112" fill="#6d4a40" opacity=".14"/>
  <g filter="url(#shadow)">
    <ellipse cx="320" cy="350" rx="162" ry="28" fill="#b9a8a2"/>
    <path d="M180 216l276-38 6 116-274 48z" fill="url(#cake)"/>
    <path d="M180 216l276-38-40-36-266 37z" fill="#9f6b51"/>
    <path d="M188 342l274-48-45 48-260 40z" fill="#3e251f"/>
    <path d="M236 208l-42 104M320 196l-38 108M400 184l-34 104" stroke="#6d4033" stroke-width="8" opacity=".55"/>
    <circle cx="252" cy="198" r="9" fill="#c99a7b"/>
    <circle cx="334" cy="188" r="8" fill="#c99a7b"/>
    <circle cx="396" cy="218" r="9" fill="#c99a7b"/>
    <path d="M214 260c46 12 94 6 144-18" stroke="#3b241d" stroke-width="8" stroke-linecap="round" opacity=".35"/>
  </g>
  <text x="320" y="428" text-anchor="middle" font-family="Segoe UI, Arial, sans-serif" font-size="32" font-weight="650" fill="#5b3a31">Brownies</text>
</svg>
