<svg xmlns="http://www.w3.org/2000/svg" viewBox="0 0 640 480" role="img" aria-label="Cappuccino">
  <defs>
    <linearGradient id="bg" x1="0" x2="1" y1="0" y2="1">
      <stop offset="0" stop-color="#f8f0e7"/>
      <stop offset="1" stop-color="#eadac9"/>
    </linearGradient>
    <linearGradient id="cup" x1="0" x2="0" y1="0" y2="1">
      <stop offset="0" stop-color="#ffffff"/>
      <stop offset="1" stop-color="#eee1d4"/>
    </linearGradient>
    <filter id="shadow" x="-20%" y="-20%" width="140%" height="150%">
      <feDropShadow dx="0" dy="18" stdDeviation="18" flood-color="#3f2c20" flood-opacity=".16"/>
    </filter>
  </defs>
  <rect width="640" height="480" fill="url(#bg)"/>
  <circle cx="112" cy="386" r="132" fill="#bb8561" opacity=".12"/>
  <g filter="url(#shadow)">
    <ellipse cx="320" cy="346" rx="166" ry="28" fill="#cab6a6"/>
    <path d="M196 198h248l-24 112c-9 41-46 66-100 66s-91-25-100-66z" fill="url(#cup)"/>
    <path d="M440 224h24c36 0 61 23 61 55s-27 55-64 55h-34l7-33h29c17 0 29-9 29-22s-12-22-29-22h-29z" fill="#fbf6ef"/>
    <ellipse cx="320" cy="198" rx="126" ry="48" fill="#fbf4eb"/>
    <ellipse cx="320" cy="200" rx="100" ry="33" fill="#b87951"/>
    <path d="M238 196c26-38 59-44 82-14 23-30 56-24 82 14-20 27-50 42-82 42s-62-15-82-42z" fill="#fff7ed"/>
    <path d="M270 196c16-18 33-18 50 0 17-18 34-18 50 0-15 14-32 22-50 22s-35-8-50-22z" fill="#d3a17c"/>
    <path d="M255 252c36 14 94 14 130 0" stroke="#d8cabd" stroke-width="8" stroke-linecap="round" fill="none"/>
  </g>
  <text x="320" y="428" text-anchor="middle" font-family="Segoe UI, Arial, sans-serif" font-size="32" font-weight="650" fill="#7b563f">Cappuccino</text>
</svg>
