<svg xmlns="http://www.w3.org/2000/svg" viewBox="0 0 640 480" role="img" aria-label="Chocolate">
  <defs>
    <linearGradient id="bg" x1="0" x2="1" y1="0" y2="1">
      <stop offset="0" stop-color="#f7f0e8"/>
      <stop offset="1" stop-color="#e8d8c8"/>
    </linearGradient>
    <linearGradient id="choco" x1="0" x2="0" y1="0" y2="1">
      <stop offset="0" stop-color="#a06c47"/>
      <stop offset="1" stop-color="#61402d"/>
    </linearGradient>
    <filter id="shadow" x="-20%" y="-20%" width="140%" height="150%">
      <feDropShadow dx="0" dy="18" stdDeviation="18" flood-color="#322117" flood-opacity=".17"/>
    </filter>
  </defs>
  <rect width="640" height="480" fill="url(#bg)"/>
  <circle cx="112" cy="392" r="132" fill="#a06c47" opacity=".12"/>
  <g filter="url(#shadow)">
    <ellipse cx="320" cy="350" rx="150" ry="26" fill="#c8b7a7"/>
    <path d="M220 120h200l-22 238H242z" fill="#fff9f3" stroke="#ffffff" stroke-width="9"/>
    <path d="M246 164h148l-16 174H262z" fill="url(#choco)"/>
    <ellipse cx="320" cy="164" rx="74" ry="20" fill="#b9855f"/>
    <path d="M264 198h112" stroke="#d8aa83" stroke-width="17" stroke-linecap="round"/>
    <path d="M276 232h88" stroke="#f3d9c2" stroke-width="14" stroke-linecap="round" opacity=".88"/>
    <path d="M286 264h68" stroke="#d8aa83" stroke-width="12" stroke-linecap="round"/>
    <path d="M294 136h52" stroke="#ffffff" stroke-width="13" stroke-linecap="round" opacity=".8"/>
    <rect x="414" y="236" width="58" height="78" rx="8" fill="#5d3829" transform="rotate(13 443 275)"/>
    <path d="M426 252h34M421 276h34" stroke="#81543e" stroke-width="6"/>
  </g>
  <text x="320" y="428" text-anchor="middle" font-family="Segoe UI, Arial, sans-serif" font-size="32" font-weight="650" fill="#744d35">Chocolate</text>
</svg>
