<svg xmlns="http://www.w3.org/2000/svg" viewBox="0 0 640 480" role="img" aria-label="Butter Croissant">
  <defs>
    <linearGradient id="bg" x1="0" x2="1" y1="0" y2="1">
      <stop offset="0" stop-color="#fbf2e4"/>
      <stop offset="1" stop-color="#ead4b4"/>
    </linearGradient>
    <linearGradient id="pastry" x1="0" x2="0" y1="0" y2="1">
      <stop offset="0" stop-color="#f0c375"/>
      <stop offset=".55" stop-color="#d8903e"/>
      <stop offset="1" stop-color="#a96528"/>
    </linearGradient>
    <filter id="shadow" x="-20%" y="-20%" width="140%" height="150%">
      <feDropShadow dx="0" dy="16" stdDeviation="16" flood-color="#5a3718" flood-opacity=".17"/>
    </filter>
  </defs>
  <rect width="640" height="480" fill="url(#bg)"/>
  <circle cx="112" cy="392" r="132" fill="#c1803e" opacity=".12"/>
  <g filter="url(#shadow)">
    <ellipse cx="320" cy="344" rx="170" ry="30" fill="#c59e76"/>
    <path d="M186 278c18-92 87-145 156-145 70 0 127 52 112 146-28 28-69 47-118 51-62 5-115-14-150-52z" fill="url(#pastry)"/>
    <path d="M182 278c-24-2-48-17-68-45 12-14 36-20 62-14 30 7 52 27 61 55-20 5-38 6-55 4z" fill="#cf8234"/>
    <path d="M458 278c24-2 48-17 68-45-12-14-36-20-62-14-30 7-52 27-61 55 20 5 38 6 55 4z" fill="#cf8234"/>
    <path d="M240 284c-4-45 20-89 59-113M322 316c-18-53-6-111 24-158M398 294c20-43 19-83-5-119" stroke="#f6d18d" stroke-width="18" stroke-linecap="round" opacity=".72"/>
    <path d="M222 286c43 24 104 31 158 15" fill="none" stroke="#9c5d25" stroke-width="8" stroke-linecap="round" opacity=".28"/>
  </g>
  <text x="320" y="428" text-anchor="middle" font-family="Segoe UI, Arial, sans-serif" font-size="32" font-weight="650" fill="#8a5726">Butter Croissant</text>
</svg>
