<svg xmlns="http://www.w3.org/2000/svg" viewBox="0 0 640 480" role="img" aria-label="Espresso">
  <defs>
    <linearGradient id="bg" x1="0" x2="1" y1="0" y2="1">
      <stop offset="0" stop-color="#f7f2eb"/>
      <stop offset="1" stop-color="#e9ddd0"/>
    </linearGradient>
    <linearGradient id="cup" x1="0" x2="0" y1="0" y2="1">
      <stop offset="0" stop-color="#ffffff"/>
      <stop offset="1" stop-color="#e8e1d8"/>
    </linearGradient>
    <radialGradient id="coffee" cx=".5" cy=".42" r=".62">
      <stop offset="0" stop-color="#a06b41"/>
      <stop offset=".58" stop-color="#6f452c"/>
      <stop offset="1" stop-color="#352014"/>
    </radialGradient>
    <filter id="shadow" x="-20%" y="-20%" width="140%" height="150%">
      <feDropShadow dx="0" dy="18" stdDeviation="18" flood-color="#2f241d" flood-opacity=".18"/>
    </filter>
  </defs>
  <rect width="640" height="480" fill="url(#bg)"/>
  <circle cx="532" cy="92" r="108" fill="#c5a081" opacity=".16"/>
  <circle cx="126" cy="392" r="136" fill="#80614b" opacity=".09"/>
  <g filter="url(#shadow)">
    <ellipse cx="320" cy="342" rx="168" ry="28" fill="#c9b6a7"/>
    <path d="M200 190h240l-22 116c-8 42-42 70-98 70s-90-28-98-70z" fill="url(#cup)"/>
    <path d="M438 214h22c38 0 64 24 64 58s-28 58-66 58h-34l7-34h30c18 0 31-10 31-24s-12-24-31-24h-30z" fill="#f5f1ec"/>
    <ellipse cx="320" cy="190" rx="122" ry="42" fill="#fffaf4"/>
    <ellipse cx="320" cy="190" rx="96" ry="27" fill="url(#coffee)"/>
    <path d="M245 190c18-18 48-27 75-27s57 9 75 27c-20 11-48 16-75 16s-55-5-75-16z" fill="#c28b58" opacity=".35"/>
    <path d="M250 240c24 18 117 18 140 0" fill="none" stroke="#d2c8bc" stroke-width="8" stroke-linecap="round" opacity=".7"/>
  </g>
  <text x="320" y="428" text-anchor="middle" font-family="Segoe UI, Arial, sans-serif" font-size="32" font-weight="650" fill="#594131">Espresso</text>
</svg>
