<svg xmlns="http://www.w3.org/2000/svg" viewBox="0 0 640 480" role="img" aria-label="Cafe Latte">
  <defs>
    <linearGradient id="bg" x1="0" x2="1" y1="0" y2="1">
      <stop offset="0" stop-color="#fbf4eb"/>
      <stop offset="1" stop-color="#ead7c6"/>
    </linearGradient>
    <linearGradient id="cup" x1="0" x2="0" y1="0" y2="1">
      <stop offset="0" stop-color="#ffffff"/>
      <stop offset="1" stop-color="#efe5dc"/>
    </linearGradient>
    <filter id="shadow" x="-20%" y="-20%" width="140%" height="150%">
      <feDropShadow dx="0" dy="18" stdDeviation="18" flood-color="#402b1c" flood-opacity=".16"/>
    </filter>
  </defs>
  <rect width="640" height="480" fill="url(#bg)"/>
  <circle cx="525" cy="92" r="112" fill="#d7a77f" opacity=".18"/>
  <circle cx="126" cy="390" r="132" fill="#b78963" opacity=".1"/>
  <g filter="url(#shadow)">
    <ellipse cx="320" cy="348" rx="168" ry="28" fill="#c9b09c"/>
    <path d="M205 182h230l-20 124c-7 44-43 72-95 72s-88-28-95-72z" fill="url(#cup)"/>
    <path d="M434 214h24c37 0 63 24 63 58s-27 58-66 58h-35l6-34h29c18 0 31-10 31-24s-12-24-31-24h-27z" fill="#fbf7f2"/>
    <ellipse cx="320" cy="182" rx="116" ry="42" fill="#fff8f0"/>
    <ellipse cx="320" cy="182" rx="90" ry="28" fill="#c89b72"/>
    <path d="M258 182c19-26 41-31 62-14 21-17 43-12 62 14-17 20-40 31-62 31s-45-11-62-31z" fill="#fff4e8"/>
    <path d="M282 182c13-12 26-12 38 0 12-12 25-12 38 0-12 11-25 17-38 17s-26-6-38-17z" fill="#d8ac83"/>
    <path d="M252 246c30 18 106 18 136 0" fill="none" stroke="#ded0c4" stroke-width="8" stroke-linecap="round"/>
  </g>
  <text x="320" y="428" text-anchor="middle" font-family="Segoe UI, Arial, sans-serif" font-size="32" font-weight="650" fill="#805d45">Cafe Latte</text>
</svg>
