<svg xmlns="http://www.w3.org/2000/svg" viewBox="0 0 256 256" role="img" aria-label="CafeShop POS logo">
  <defs>
    <linearGradient id="markBg" x1="32" x2="224" y1="28" y2="230" gradientUnits="userSpaceOnUse">
      <stop offset="0" stop-color="#2b8a76"/>
      <stop offset="1" stop-color="#165449"/>
    </linearGradient>
    <linearGradient id="paper" x1="0" x2="0" y1="0" y2="1">
      <stop offset="0" stop-color="#fffaf2"/>
      <stop offset="1" stop-color="#eadfce"/>
    </linearGradient>
    <filter id="softShadow" x="-20%" y="-20%" width="140%" height="140%">
      <feDropShadow dx="0" dy="10" stdDeviation="10" flood-color="#0b2924" flood-opacity=".26"/>
    </filter>
  </defs>
  <rect width="256" height="256" rx="54" fill="url(#markBg)"/>
  <circle cx="202" cy="54" r="42" fill="#ffffff" opacity=".09"/>
  <circle cx="42" cy="214" r="58" fill="#ffffff" opacity=".08"/>
  <g filter="url(#softShadow)">
    <path d="M74 58h108c8 0 14 6 14 14v118l-18-10-18 10-18-10-18 10-18-10-18 10-18-10V72c0-8 6-14 14-14z" fill="url(#paper)"/>
    <path d="M92 84h72M92 110h72M92 136h44" stroke="#1b6255" stroke-width="10" stroke-linecap="round"/>
    <path d="M74 154h108v20c0 24-21 42-54 42s-54-18-54-42z" fill="#ffffff"/>
    <ellipse cx="128" cy="154" rx="54" ry="18" fill="#ffffff"/>
    <ellipse cx="128" cy="154" rx="40" ry="10" fill="#9b6a45"/>
    <path d="M180 166h12c16 0 28 11 28 26s-13 26-30 26h-24l6-20h18c6 0 10-3 10-7s-4-7-10-7h-14z" fill="#ffffff"/>
    <path d="M98 154c10-12 20-13 30-2 10-11 20-10 30 2-8 10-18 15-30 15s-22-5-30-15z" fill="#f0dfcf"/>
  </g>
</svg>
