<svg xmlns="http://www.w3.org/2000/svg" viewBox="0 0 640 480" role="img" aria-label="Matcha Latte">
  <defs>
    <linearGradient id="bg" x1="0" x2="1" y1="0" y2="1">
      <stop offset="0" stop-color="#f1f6ec"/>
      <stop offset="1" stop-color="#dce9d0"/>
    </linearGradient>
    <linearGradient id="drink" x1="0" x2="0" y1="0" y2="1">
      <stop offset="0" stop-color="#a9c583"/>
      <stop offset="1" stop-color="#6f8e56"/>
    </linearGradient>
    <filter id="shadow" x="-20%" y="-20%" width="140%" height="150%">
      <feDropShadow dx="0" dy="18" stdDeviation="18" flood-color="#25351f" flood-opacity=".16"/>
    </filter>
  </defs>
  <rect width="640" height="480" fill="url(#bg)"/>
  <circle cx="526" cy="92" r="112" fill="#799760" opacity=".16"/>
  <g filter="url(#shadow)">
    <ellipse cx="320" cy="350" rx="150" ry="26" fill="#b7c7ae"/>
    <path d="M220 120h200l-22 238H242z" fill="#fbfff8" stroke="#ffffff" stroke-width="9"/>
    <path d="M246 166h148l-16 172H262z" fill="url(#drink)"/>
    <ellipse cx="320" cy="166" rx="74" ry="20" fill="#b9d69b"/>
    <path d="M246 204c22-20 48-22 77-8 27 13 50 13 71-1v39c-24 14-48 17-73 6-25-10-50-8-75 7z" fill="#edf5e4"/>
    <path d="M286 196c11-10 22-10 34 0 12-10 25-10 38 0-12 11-25 16-38 16s-24-5-34-16z" fill="#a9c583"/>
    <path d="M294 138h52" stroke="#ffffff" stroke-width="13" stroke-linecap="round" opacity=".85"/>
    <path d="M394 252l48-46" stroke="#799760" stroke-width="16" stroke-linecap="round"/>
    <path d="M424 204c16-12 32-12 48 0-18 9-34 12-48 0z" fill="#7fa162"/>
  </g>
  <text x="320" y="428" text-anchor="middle" font-family="Segoe UI, Arial, sans-serif" font-size="32" font-weight="650" fill="#5f784d">Matcha Latte</text>
</svg>
