<svg xmlns="http://www.w3.org/2000/svg" viewBox="0 0 640 480" role="img" aria-label="Caramel Pudding">
  <defs>
    <linearGradient id="bg" x1="0" x2="1" y1="0" y2="1">
      <stop offset="0" stop-color="#faf0e6"/>
      <stop offset="1" stop-color="#ead7c3"/>
    </linearGradient>
    <linearGradient id="pudding" x1="0" x2="0" y1="0" y2="1">
      <stop offset="0" stop-color="#ffe7a2"/>
      <stop offset="1" stop-color="#e0aa53"/>
    </linearGradient>
    <filter id="shadow" x="-20%" y="-20%" width="140%" height="150%">
      <feDropShadow dx="0" dy="16" stdDeviation="16" flood-color="#563719" flood-opacity=".16"/>
    </filter>
  </defs>
  <rect width="640" height="480" fill="url(#bg)"/>
  <circle cx="528" cy="92" r="112" fill="#b97a42" opacity=".14"/>
  <g filter="url(#shadow)">
    <ellipse cx="320" cy="352" rx="154" ry="28" fill="#c6aa88"/>
    <ellipse cx="320" cy="304" rx="122" ry="44" fill="#d49d50"/>
    <path d="M214 228c0-64 48-104 106-104s106 40 106 104c0 44-22 78-54 94H268c-32-16-54-50-54-94z" fill="url(#pudding)"/>
    <ellipse cx="320" cy="226" rx="106" ry="42" fill="#c27935"/>
    <path d="M226 224c17 32 48 47 94 47s77-15 94-47c-17 18-49 28-94 28s-77-10-94-28z" fill="#a7622d" opacity=".62"/>
    <path d="M248 204c25 15 50 22 76 22s52-7 78-22" stroke="#efb262" stroke-width="10" stroke-linecap="round" opacity=".65"/>
    <path d="M274 154c28-14 62-14 92 0" stroke="#ffeab5" stroke-width="12" stroke-linecap="round" opacity=".5"/>
  </g>
  <text x="320" y="428" text-anchor="middle" font-family="Segoe UI, Arial, sans-serif" font-size="32" font-weight="650" fill="#976336">Caramel Pudding</text>
</svg>
