<svg xmlns="http://www.w3.org/2000/svg" viewBox="0 0 640 480" role="img" aria-label="Lemongrass Tea">
  <defs>
    <linearGradient id="bg" x1="0" x2="1" y1="0" y2="1">
      <stop offset="0" stop-color="#f2f6ea"/>
      <stop offset="1" stop-color="#e1ead2"/>
    </linearGradient>
    <linearGradient id="tea" x1="0" x2="0" y1="0" y2="1">
      <stop offset="0" stop-color="#c9d989"/>
      <stop offset="1" stop-color="#a3b96c"/>
    </linearGradient>
    <filter id="shadow" x="-20%" y="-20%" width="140%" height="150%">
      <feDropShadow dx="0" dy="18" stdDeviation="18" flood-color="#30391f" flood-opacity=".14"/>
    </filter>
  </defs>
  <rect width="640" height="480" fill="url(#bg)"/>
  <circle cx="528" cy="92" r="112" fill="#a3b96c" opacity=".15"/>
  <g filter="url(#shadow)">
    <ellipse cx="320" cy="350" rx="150" ry="26" fill="#bac7a6"/>
    <path d="M218 124h204l-22 234H240z" fill="#fbfff8" stroke="#ffffff" stroke-width="9"/>
    <path d="M244 178h152l-16 160H260z" fill="url(#tea)"/>
    <ellipse cx="320" cy="178" rx="76" ry="18" fill="#d6e39d"/>
    <path d="M268 212c13 20 13 40 0 60M320 204c14 24 14 50 0 76M372 212c13 20 13 40 0 60" stroke="#fff7d2" stroke-width="11" stroke-linecap="round" opacity=".95"/>
    <path d="M402 198l62-48" stroke="#8fa858" stroke-width="15" stroke-linecap="round"/>
    <path d="M454 147c19-8 38-6 56 7-21 7-40 6-56-7z" fill="#7f9f54"/>
    <path d="M286 140h68" stroke="#ffffff" stroke-width="13" stroke-linecap="round" opacity=".82"/>
  </g>
  <text x="320" y="428" text-anchor="middle" font-family="Segoe UI, Arial, sans-serif" font-size="30" font-weight="650" fill="#667a43">Lemongrass Tea</text>
</svg>
