<svg xmlns="http://www.w3.org/2000/svg" viewBox="0 0 640 480" role="img" aria-label="Chicken Toast">
  <defs>
    <linearGradient id="bg" x1="0" x2="1" y1="0" y2="1">
      <stop offset="0" stop-color="#faf1e8"/>
      <stop offset="1" stop-color="#ead6c2"/>
    </linearGradient>
    <filter id="shadow" x="-20%" y="-20%" width="140%" height="150%">
      <feDropShadow dx="0" dy="16" stdDeviation="16" flood-color="#51321f" flood-opacity=".16"/>
    </filter>
  </defs>
  <rect width="640" height="480" fill="url(#bg)"/>
  <circle cx="528" cy="92" r="112" fill="#bd8152" opacity=".14"/>
  <g filter="url(#shadow)">
    <ellipse cx="320" cy="350" rx="158" ry="28" fill="#c7ab91"/>
    <path d="M186 250c0-74 62-124 134-124s134 50 134 124v70H186z" fill="#c98445"/>
    <path d="M212 244c0-57 50-94 108-94s108 37 108 94v50H212z" fill="#f5cf95"/>
    <rect x="220" y="232" width="200" height="26" rx="13" fill="#7da55d"/>
    <rect x="236" y="268" width="168" height="22" rx="11" fill="#d36d55"/>
    <path d="M244 302h152" stroke="#f9edd2" stroke-width="21" stroke-linecap="round"/>
    <path d="M250 184c25-14 49-20 72-20s47 6 72 20" stroke="#fff4d9" stroke-width="13" stroke-linecap="round" opacity=".7"/>
    <circle cx="274" cy="246" r="10" fill="#f7edcf"/>
    <circle cx="356" cy="278" r="10" fill="#f7edcf"/>
  </g>
  <text x="320" y="428" text-anchor="middle" font-family="Segoe UI, Arial, sans-serif" font-size="32" font-weight="650" fill="#8b5d39">Chicken Toast</text>
</svg>
